<svg width="450" height="90" viewBox="0 0 500 90" fill="none" xmlns="http://www.w3.org/2000/svg">
<path d="M0.320001 0.399998H17V88H0.320001V0.399998ZM28.1291 59.2C28.1291 54 29.0491 49.4 30.8891 45.4C32.7291 41.32 35.1291 38.12 38.0891 35.8C41.1291 33.48 44.2891 31.72 47.5691 30.52C50.9291 29.32 54.3291 28.72 57.7691 28.72C63.5291 28.72 68.4891 29.8 72.6491 31.96C76.8891 34.12 80.0091 36.92 82.0091 40.36C84.0091 43.72 85.3691 47.56 86.0891 51.88C86.8891 56.12 86.6891 60.36 85.4891 64.6H44.9291C45.8091 68.6 48.1291 71.6 51.8891 73.6C55.6491 75.52 60.0891 76.48 65.2091 76.48C71.5291 76.48 77.3291 75.32 82.6091 73V86.08C76.9291 88.48 69.8891 89.68 61.4891 89.68C51.8891 89.68 43.9291 87 37.6091 81.64C31.2891 76.28 28.1291 68.8 28.1291 59.2ZM70.4891 53.8C70.8891 51.16 70.1291 48.44 68.2091 45.64C66.2891 42.84 63.0091 41.44 58.3691 41.44C54.6891 41.44 51.5291 42.56 48.8891 44.8C46.2491 46.96 44.8891 49.96 44.8091 53.8H70.4891ZM113.674 88H96.9941V30.4H111.754V37.12C113.594 34.96 116.114 33.04 119.314 31.36C122.514 29.6 126.114 28.72 130.114 28.72C138.034 28.72 143.914 31.56 147.754 37.24C153.594 31.56 159.994 28.72 166.954 28.72C174.314 28.72 179.714 31.04 183.154 35.68C186.674 40.24 188.434 45.52 188.434 51.52V88H171.874V52.6C171.874 49.64 171.034 47.32 169.354 45.64C167.754 43.96 165.594 43.12 162.874 43.12C158.634 43.12 154.834 45.04 151.474 48.88C151.554 49.44 151.594 50.32 151.594 51.52V88H135.034V52.6C135.034 49.64 134.194 47.32 132.514 45.64C130.914 43.96 128.754 43.12 126.034 43.12C121.314 43.12 117.194 45.44 113.674 50.08V88ZM253.474 73.12C253.474 75.68 254.834 76.96 257.554 76.96C258.674 76.96 259.714 76.8 260.674 76.48V87.4C257.634 88.52 254.554 89.08 251.434 89.08C245.354 89.08 241.114 86.92 238.714 82.6C232.714 87.32 225.794 89.68 217.954 89.68C212.274 89.68 207.474 88.12 203.554 85C199.714 81.8 197.794 77.48 197.794 72.04C197.794 67.48 199.154 63.68 201.874 60.64C204.594 57.6 207.754 55.56 211.354 54.52C214.954 53.4 218.874 52.84 223.114 52.84C227.834 52.84 232.394 53.36 236.794 54.4V52.36C236.794 49.4 235.634 47.04 233.314 45.28C230.994 43.52 227.634 42.64 223.234 42.64C216.834 42.64 210.034 44.08 202.834 46.96V32.56C210.514 30 217.954 28.72 225.154 28.72C244.034 28.72 253.474 37.4 253.474 54.76V73.12ZM226.954 62.8C223.514 62.8 220.634 63.44 218.314 64.72C215.994 66 214.834 68 214.834 70.72C214.834 72.8 215.674 74.52 217.354 75.88C219.114 77.16 221.274 77.8 223.834 77.8C228.874 77.8 233.194 76.24 236.794 73.12V64.12C233.114 63.24 229.834 62.8 226.954 62.8ZM283.317 37.72C288.517 31.72 294.917 28.72 302.517 28.72C309.877 28.72 315.597 30.96 319.677 35.44C323.837 39.84 325.917 45.48 325.917 52.36V88H309.237V54.52C309.237 50.76 308.197 47.92 306.117 46C304.117 44.08 301.437 43.12 298.077 43.12C292.877 43.12 288.597 45.56 285.237 50.44V88H268.557V30.4H283.317V37.72ZM354.098 37.72C359.298 31.72 365.698 28.72 373.298 28.72C380.658 28.72 386.378 30.96 390.458 35.44C394.618 39.84 396.698 45.48 396.698 52.36V88H380.018V54.52C380.018 50.76 378.978 47.92 376.898 46C374.898 44.08 372.218 43.12 368.858 43.12C363.658 43.12 359.378 45.56 356.018 50.44V88H339.338V30.4H354.098V37.72Z" fill="white"/>
<circle cx="450" cy="60" r="16" fill="white"/>
</svg>
