<svg width="229" height="25" viewBox="0 0 229 25" fill="none" xmlns="http://www.w3.org/2000/svg">
<path d="M15.2415 19.2385C15.0796 20.8375 15.0796 22.3748 15.2415 24.0713C12.3471 23.8762 10.3626 23.8438 8.18049 23.8438C6.13115 23.8438 2.29147 23.8763 0.339261 24.0388V23.8438C2.06485 23.5513 2.97459 22.963 3.07171 21.0682C3.23359 18.062 3.23359 15.8423 3.23359 12.251C3.23359 8.91975 3.20121 6.33925 3.03934 3.40125C2.94221 1.6365 2.06161 0.950751 0.306885 0.658251V0.463251C1.96448 0.593251 3.3987 0.658251 4.73255 0.658251C6.0664 0.658251 7.49737 0.593251 9.15821 0.463251V0.658251C7.36787 0.983251 6.52289 1.6365 6.42576 3.40125C6.23151 6.505 6.23151 8.72475 6.23151 12.251C6.23151 15.7773 6.26389 18.4228 6.36101 20.1875C6.49051 22.4072 8.15135 22.6055 10.6248 22.6055C13.2925 22.6055 14.3673 22.1147 15.0505 19.2092L15.2447 19.2417L15.2415 19.2385Z" fill="white"/>
<path d="M34.2747 19.1703C34.1128 20.7693 34.1128 22.3065 34.2747 24.003C31.3803 23.808 29.3958 23.8405 27.2137 23.8405C25.1644 23.8405 21.2923 23.873 19.3401 24.0355V23.8405C21.0657 23.548 21.9754 22.9597 22.0725 21.065C22.2344 18.0588 22.2344 15.839 22.2344 12.2478C22.2344 9.0465 22.2344 6.401 22.0725 3.463C21.9754 1.66575 21.098 0.9475 19.3725 0.655V0.459999C21.357 0.622499 24.1219 0.655 27.2137 0.655C29.5576 0.655 32.2577 0.589999 34.1452 0.459999C34.0481 1.734 34.0157 3.398 34.1452 4.93525H33.9509C33.4621 2.32225 32.193 1.734 29.072 1.734C28.0619 1.734 26.8284 1.7665 25.4266 1.929C25.2647 6.27425 25.2323 8.3965 25.2323 11.0745C26.2068 11.107 27.2493 11.107 28.9425 11.0745C31.1861 11.042 31.6102 10.1613 31.9696 8.7215L32.1638 8.754C32.0667 9.69975 31.9696 10.6812 31.9696 11.5945C31.9696 12.5077 32.0343 13.4892 32.1638 14.4025L31.9696 14.435C31.5455 12.8685 31.2217 12.2478 28.9425 12.1828C27.6087 12.1503 26.4043 12.1502 25.2323 12.1502V12.2478C25.2323 15.8065 25.2647 18.4195 25.3618 20.1842C25.5237 22.404 27.1522 22.6023 29.658 22.6023C32.3257 22.6023 33.4005 22.0465 34.0837 19.141L34.2779 19.1735L34.2747 19.1703Z" fill="white"/>
<path d="M68.8254 23.8405V24.0355C67.2002 23.9055 65.7983 23.873 64.3026 23.873C63.0335 23.873 61.5702 23.9055 59.9417 24.0355V23.8405C61.5993 23.5805 62.5446 23.0897 62.4151 21.2275C62.1238 16.7522 61.6673 12.4102 61.0813 8.0325C58.0219 13.5185 55.1599 18.8745 52.3951 24.2987H52.3303C49.5655 18.9752 46.5384 13.5218 43.3819 8.13325C42.7959 12.6085 42.3718 16.7555 42.048 21.1332C41.8862 23.0605 42.5369 23.5187 44.4244 23.8437V24.0387C42.8315 23.9088 42.1452 23.8762 40.944 23.8762C39.7429 23.8762 38.8947 23.9088 37.3342 24.0387V23.8437C39.1893 23.5837 39.9048 23.0605 40.1638 21.1332C41.1739 14.2432 41.9218 7.1225 42.4721 0.196751H42.5369C45.7906 6.336 49.1414 12.3778 53.2401 19.206C56.9826 12.6735 60.3011 6.56675 63.5224 0.196751H63.5871C64.1731 7.3825 64.921 14.2075 65.8955 21.2632C66.1221 23.0605 67.0674 23.548 68.8222 23.8437L68.8254 23.8405Z" fill="white"/>
<path d="M94.0033 23.8405V24.0355C92.8961 23.9055 91.109 23.8405 89.7752 23.8405C88.5384 23.8405 86.6186 23.873 85.0258 24.0355V23.8405C87.0751 23.6455 88.0204 22.8947 87.305 21C86.8808 19.8885 86.2301 18.3545 85.4822 16.6222C84.1808 16.5572 82.6203 16.5247 81.0242 16.5247C79.4281 16.5247 77.7381 16.5572 76.469 16.6222C75.9154 18.0912 75.3618 19.5602 74.8406 21C74.1251 22.8947 74.7111 23.6455 76.8252 23.8405V24.0355C75.6856 23.938 74.287 23.8405 73.3125 23.8405C72.0434 23.8405 70.8714 23.938 69.9617 24.0355V23.8405C71.0041 23.678 72.011 22.9272 72.856 20.9675C75.2647 15.4815 79.7519 4.73375 81.4775 0.22925H81.5422C84.893 7.90575 86.8129 12.0528 90.9439 21.0358C91.7889 22.8655 92.472 23.5837 94.0033 23.8438V23.8405ZM84.8607 15.1532C83.4297 11.9195 81.8012 8.32825 80.6972 5.91025C79.5252 8.78325 78.2885 11.952 77.0518 15.1208C78.1914 15.2183 79.7842 15.2833 80.9886 15.2833C82.2577 15.2833 83.6239 15.2183 84.8607 15.1532Z" fill="white"/>
<path d="M120.357 0.45675V0.65175C118.731 0.94425 117.851 1.5325 117.754 3.36225C117.592 6.10525 117.495 8.1625 117.495 12.4103C117.495 15.9365 117.495 20.4768 117.592 24.2663H117.527C112.192 18.387 106.465 12.5078 100.446 6.6285V11.6595C100.446 16.0373 100.511 18.1595 100.673 21.065C100.77 22.9598 101.65 23.548 103.243 23.8405V24.0355C101.65 23.9055 100.64 23.8405 99.533 23.8405C98.4258 23.8405 97.5161 23.9055 95.9232 24.0355V23.8405C97.5517 23.548 98.3967 22.9598 98.4938 21.065C98.6557 18.192 98.7528 16.034 98.7528 11.6595C98.7528 8.26325 98.7528 3.6255 98.6557 0.22925H98.7204C104.48 6.336 110.204 12.1828 115.866 17.8345V12.2835C115.866 8.0715 115.801 6.07925 115.64 3.40125C115.51 1.539 114.629 0.95075 113.037 0.65825V0.46325C114.597 0.59325 115.64 0.65825 116.714 0.65825C117.789 0.65825 118.796 0.59325 120.357 0.46325V0.45675Z" fill="white"/>
<path d="M146.545 0.45675V0.65175C144.916 0.94425 144.039 1.5325 143.942 3.36225C143.78 6.10525 143.683 8.1625 143.683 12.4103C143.683 15.9365 143.683 20.4768 143.78 24.2663H143.715C138.38 18.387 132.653 12.5078 126.634 6.6285V11.6595C126.634 16.0373 126.699 18.1595 126.861 21.065C126.958 22.9598 127.835 23.548 129.431 23.8405V24.0355C127.838 23.9055 126.828 23.8405 125.721 23.8405C124.614 23.8405 123.704 23.9055 122.108 24.0355V23.8405C123.733 23.548 124.582 22.9598 124.679 21.065C124.841 18.192 124.938 16.034 124.938 11.6595C124.938 8.26325 124.938 3.6255 124.841 0.22925H124.905C130.665 6.336 136.389 12.1828 142.051 17.8345V12.2835C142.051 8.0715 141.986 6.07925 141.824 3.40125C141.695 1.539 140.814 0.95075 139.222 0.65825V0.46325C140.782 0.59325 141.824 0.65825 142.899 0.65825C143.974 0.65825 144.981 0.59325 146.545 0.46325V0.45675Z" fill="white"/>
<path d="M157.963 12.2477C157.963 5.0945 163.169 0.22925 170.781 0.22925C173.578 0.22925 175.987 0.849999 177.809 1.66575C177.615 3.23225 177.647 4.737 177.809 6.271H177.615C176.605 2.579 174.005 1.50325 170.816 1.50325C164.571 1.50325 161.282 5.9135 161.282 11.6595C161.282 17.4055 164.144 22.9922 171.14 22.9922C174.232 22.9922 177.421 21.9782 178.201 17.8637H178.395C178.169 19.7585 178.201 21.4225 178.395 22.794C176.67 23.5122 173.711 24.263 170.684 24.263C162.842 24.263 157.963 19.3327 157.963 12.2445V12.2477Z" fill="white"/>
<path d="M204.422 23.8405V24.0355C203.314 23.9055 201.527 23.8405 200.193 23.8405C198.957 23.8405 197.037 23.873 195.444 24.0355V23.8405C197.493 23.6455 198.439 22.8947 197.72 21C197.296 19.8885 196.645 18.3545 195.897 16.6222C194.596 16.5572 193.035 16.5247 191.439 16.5247C189.843 16.5247 188.153 16.5572 186.884 16.6222C186.33 18.0912 185.777 19.5602 185.259 21C184.543 22.8947 185.129 23.6455 187.243 23.8405V24.0355C186.104 23.938 184.705 23.8405 183.731 23.8405C182.462 23.8405 181.29 23.938 180.38 24.0355V23.8405C181.419 23.678 182.429 22.9272 183.274 20.9675C185.683 15.4815 190.17 4.73375 191.896 0.22925H191.96C195.311 7.90575 197.231 12.0528 201.362 21.0358C202.207 22.8655 202.89 23.5837 204.422 23.8438V23.8405ZM195.279 15.1532C193.848 11.9195 192.219 8.32825 191.115 5.91025C189.943 8.78325 188.707 11.952 187.473 15.1208C188.613 15.2183 190.206 15.2833 191.41 15.2833C192.679 15.2833 194.045 15.2183 195.282 15.1532H195.279Z" fill="white"/>
<path d="M228.69 23.808V24.003C219.547 24.003 221.01 21.8482 215.74 14.0092C215.38 14.0417 215.024 14.0743 214.633 14.0743C213.852 14.0743 212.939 14.0093 212.256 13.9443C212.256 16.5573 212.289 18.517 212.451 21.0975C212.548 22.8623 213.393 23.5155 215.183 23.8405V24.0355C213.525 23.9055 212.059 23.8405 210.757 23.8405C209.456 23.8405 207.993 23.9055 206.332 24.0355V23.8405C208.09 23.548 208.967 22.8623 209.064 21.0975C209.226 18.1595 209.258 15.579 209.258 12.2478C209.258 10.028 209.258 5.81275 209.096 3.23225C208.967 1.435 208.119 0.91175 206.364 0.65175V0.456751C207.957 0.586751 209.194 0.65175 210.527 0.65175C211.991 0.65175 213.454 0.521751 214.659 0.521751C219.703 0.521751 222.338 3.29725 222.338 6.95675C222.338 9.47225 221.069 11.822 218.793 13.0635C223.053 20.1842 225.006 23.743 228.683 23.808H228.69ZM219.288 7.44425C219.288 4.60375 217.857 1.76 214.276 1.76C213.658 1.76 213.072 1.825 212.454 1.89C212.26 6.65775 212.26 8.94575 212.26 12.2445V12.8653C212.813 12.9628 213.464 13.0603 214.276 13.0603C218.375 13.0603 219.288 9.6965 219.288 7.44425Z" fill="white"/>
</svg>
