<svg xmlns="http://www.w3.org/2000/svg" width="100" height="11" viewBox="0 0 100 11" fill="none">
<path d="M5.23181 8.39775C5.17353 8.9275 5.17353 9.4215 5.23181 10.0098C4.13106 9.93825 3.57744 9.91225 2.77778 9.91225C1.97811 9.91225 0.63455 9.92525 0 9.98375V9.91225C0.585987 9.84075 0.97125 9.636 1.00686 8.93725C1.06514 7.855 1.06514 6.91575 1.06514 5.64175C1.06514 4.36775 1.06514 3.4155 1.00686 2.33325C0.97125 1.6605 0.611887 1.44275 0 1.37125V1.29975C0.611887 1.3485 1.02953 1.37125 1.47306 1.37125C1.9166 1.37125 2.32453 1.3485 2.94613 1.29975V1.37125C2.33424 1.44275 1.97488 1.6605 1.93926 2.33325C1.88099 3.43825 1.88099 4.41325 1.88099 5.64175C1.88099 6.87025 1.88099 7.9135 1.92955 8.661C1.97811 9.44425 2.47992 9.50275 3.58391 9.50275C4.54221 9.50275 4.90157 9.40525 5.16381 8.38475L5.23504 8.39775H5.23181Z" fill="white"/>
<path d="M14.1835 1.303V1.3745C13.5845 1.446 13.2381 1.63775 13.1993 2.3365C13.141 3.43175 13.1151 5.17375 13.1151 6.5095C13.1151 8.85275 12.0985 10.0585 10.0136 10.0585C7.92862 10.0585 6.85054 8.74875 6.85054 6.38925C6.85054 4.93325 6.85053 3.41875 6.79226 2.3365C6.75665 1.65075 6.41024 1.459 5.7854 1.3745V1.303C6.407 1.35175 6.82787 1.3745 7.25846 1.3745C7.68905 1.3745 8.11963 1.35175 8.74447 1.303V1.3745C8.12287 1.459 7.77323 1.65075 7.73761 2.3365C7.66639 3.4415 7.66639 5.00475 7.66639 6.44775C7.66639 8.59925 8.44662 9.61 10.1334 9.61C11.7262 9.61 12.5518 8.7065 12.5518 6.568C12.5518 5.294 12.5388 3.40575 12.4805 2.33325C12.4449 1.6345 12.0856 1.44275 11.4866 1.37125V1.29975C12.0629 1.3485 12.4093 1.37125 12.8399 1.37125C13.2705 1.37125 13.6072 1.3485 14.1802 1.29975L14.1835 1.303Z" fill="white"/>
<path d="M23.4589 9.9155V9.987C23.0153 9.95125 22.4779 9.9155 22.057 9.9155C21.6362 9.9155 21.0016 9.93825 20.4642 9.987V9.9155C21.1117 9.831 21.484 9.62625 21.0146 8.9405C20.6066 8.3035 19.7552 7.12375 18.8098 5.814C17.9486 7.0165 17.3141 7.92975 16.6763 8.91775C16.2328 9.58075 16.5565 9.857 17.3109 9.9155V9.987C16.7119 9.93825 16.3752 9.9155 15.9705 9.9155C15.5658 9.9155 15.0964 9.95125 14.75 9.987V9.9155C15.3489 9.844 15.5529 9.6035 16.0547 8.91775C16.7508 7.96875 17.6605 6.66875 18.5217 5.4305C17.7544 4.371 16.9418 3.279 16.2457 2.33975C15.7083 1.61825 15.527 1.4265 14.9637 1.342V1.2705C15.3457 1.31925 16.0191 1.342 16.4238 1.342C16.8285 1.342 17.2623 1.329 17.9325 1.2705V1.342C17.1781 1.4005 16.9386 1.63125 17.3918 2.304C17.8451 2.97675 18.5184 3.929 19.2857 4.98525C20.0174 3.95175 20.4966 3.253 21.1182 2.304C21.5487 1.654 21.2379 1.4005 20.4836 1.342V1.2705C21.0599 1.31925 21.3836 1.342 21.7883 1.342C22.193 1.342 22.5912 1.31925 23.0445 1.2705V1.342C22.4682 1.4135 22.206 1.654 21.7495 2.317C21.0081 3.3765 20.3962 4.21825 19.5577 5.372L22.193 8.94375C22.6851 9.6165 22.8891 9.80825 23.4524 9.91875L23.4589 9.9155Z" fill="white"/>
<path d="M32.7926 1.303V1.3745C32.1937 1.446 31.8473 1.63775 31.8116 2.3365C31.7501 3.43175 31.7275 5.17375 31.7275 6.5095C31.7275 8.85275 30.7109 10.0585 28.6259 10.0585C26.541 10.0585 25.4629 8.74875 25.4629 6.38925C25.4629 4.93325 25.4629 3.41875 25.4014 2.3365C25.3658 1.65075 25.0194 1.459 24.3945 1.3745V1.303C25.0161 1.35175 25.437 1.3745 25.8676 1.3745C26.2982 1.3745 26.7288 1.35175 27.3536 1.303V1.3745C26.732 1.459 26.3824 1.65075 26.3468 2.3365C26.2755 3.4415 26.2755 5.00475 26.2755 6.44775C26.2755 8.59925 27.0558 9.61 28.7425 9.61C30.3354 9.61 31.1609 8.7065 31.1609 6.568C31.1609 5.294 31.148 3.40575 31.0897 2.33325C31.0541 1.6345 30.6947 1.44275 30.0958 1.37125V1.29975C30.672 1.3485 31.0185 1.37125 31.449 1.37125C31.8796 1.37125 32.2163 1.3485 32.7894 1.29975L32.7926 1.303Z" fill="white"/>
<path d="M41.6116 9.9025V9.974C38.6655 9.974 39.0604 9.1095 37.0823 6.2105C36.914 6.23325 36.7456 6.24625 36.5546 6.24625C36.2438 6.24625 35.9201 6.2235 35.6675 6.1975C35.6675 7.18225 35.6805 8.01425 35.7291 8.95025C35.7647 9.623 36.124 9.84075 36.7359 9.91225V9.98375C36.1143 9.935 35.6934 9.91225 35.2629 9.91225C34.8323 9.91225 34.4017 9.935 33.7898 9.98375V9.91225C34.4017 9.84075 34.761 9.623 34.7967 8.95025C34.8582 7.868 34.8582 6.85725 34.8582 5.64175C34.8582 4.5465 34.8582 3.33425 34.7967 2.28775C34.761 1.615 34.4017 1.42325 33.7898 1.3615V1.29C34.3758 1.33875 34.7125 1.3615 35.2402 1.3615C35.7323 1.3615 36.2114 1.32575 36.6064 1.32575C38.3806 1.32575 39.2774 2.35925 39.2774 3.64625C39.2774 4.60825 38.7982 5.49875 37.9111 5.944C39.6238 8.687 40.2939 9.8895 41.6116 9.89925V9.9025ZM38.4259 3.82825C38.4259 2.8305 37.9241 1.74825 36.5222 1.74825C36.26 1.74825 36.0075 1.771 35.7452 1.80675C35.674 3.57475 35.674 4.4165 35.674 5.64175V5.8465C35.9136 5.89525 36.1661 5.918 36.4769 5.918C38.0827 5.918 38.4291 4.65375 38.4291 3.825L38.4259 3.82825Z" fill="white"/>
<path d="M48.4524 1.303V1.3745C47.8664 1.48175 47.6268 1.66375 47.1703 2.3495C46.5002 3.37 45.6746 4.69275 44.917 5.944C44.917 7.08475 44.917 7.9395 44.9785 8.999C45.0142 9.68475 45.3606 9.8895 45.9854 9.961V10.0325C45.3638 9.98375 44.9559 9.97075 44.5123 9.97075C44.0688 9.97075 43.6512 9.98375 43.0263 10.0325V9.961C43.6479 9.8895 43.9976 9.68475 44.0332 8.999C44.0947 7.9655 44.1044 7.12375 44.1044 6.1C43.3015 4.7545 42.463 3.40575 41.7799 2.3495C41.3234 1.65075 41.0741 1.459 40.5205 1.3745V1.303C40.9025 1.33875 41.4432 1.3745 41.8738 1.3745C42.3044 1.3745 42.8094 1.35175 43.4537 1.303V1.3745C42.6734 1.472 42.3529 1.6865 42.7576 2.3495C43.3436 3.2985 43.9555 4.29625 44.6516 5.489C45.3347 4.40675 46.0404 3.253 46.5811 2.3495C46.9987 1.67675 46.6394 1.446 45.885 1.3745V1.303C46.471 1.35175 46.8563 1.3745 47.2739 1.3745C47.7175 1.3745 48.0639 1.35175 48.4491 1.303H48.4524Z" fill="white"/>
<path d="M60.3372 9.9025V9.974C57.3911 9.974 57.7861 9.1095 55.808 6.2105C55.6396 6.23325 55.4713 6.24625 55.2803 6.24625C54.9695 6.24625 54.6457 6.2235 54.3932 6.1975C54.3932 7.18225 54.4062 8.01425 54.4515 8.95025C54.4871 9.623 54.8464 9.84075 55.4583 9.91225V9.98375C54.8367 9.935 54.4159 9.91225 53.9853 9.91225C53.5547 9.91225 53.1241 9.935 52.5122 9.98375V9.91225C53.1241 9.84075 53.4835 9.623 53.5191 8.95025C53.5773 7.868 53.5773 6.85725 53.5773 5.64175C53.5773 4.5465 53.5773 3.33425 53.5191 2.28775C53.4835 1.615 53.1241 1.42325 52.5122 1.3615V1.29C53.0982 1.33875 53.4349 1.3615 53.9626 1.3615C54.4547 1.3615 54.9339 1.32575 55.3288 1.32575C57.103 1.32575 57.9998 2.35925 57.9998 3.64625C57.9998 4.60825 57.5206 5.49875 56.6335 5.944C58.3462 8.687 59.0163 9.8895 60.334 9.89925L60.3372 9.9025ZM57.1515 3.82825C57.1515 2.8305 56.6497 1.74825 55.2479 1.74825C54.9857 1.74825 54.7331 1.771 54.4677 1.80675C54.3964 3.57475 54.3964 4.4165 54.3964 5.64175V5.8465C54.636 5.89525 54.8885 5.918 55.1993 5.918C56.8051 5.918 57.1515 4.65375 57.1515 3.825V3.82825Z" fill="white"/>
<path d="M66.0773 8.362C66.0158 8.89175 66.0158 9.38575 66.0773 9.974C64.9766 9.9025 64.423 9.9155 63.6201 9.9155C62.8172 9.9155 61.4768 9.9285 60.8423 9.987V9.9155C61.4283 9.844 61.8135 9.63925 61.8491 8.9405C61.9107 7.85825 61.9107 6.919 61.9107 5.645C61.9107 4.49125 61.9107 3.41875 61.8491 2.3365C61.8135 1.65075 61.4542 1.433 60.8423 1.3745V1.303C61.4898 1.3615 62.4837 1.3745 63.6201 1.3745C64.3388 1.3745 65.3327 1.3615 66.0385 1.303C66.0029 1.771 66.0029 2.28775 66.0385 2.79475H65.9672C65.7989 1.89125 65.3683 1.74825 64.1834 1.74825C63.7528 1.74825 63.238 1.771 62.7815 1.81975C62.733 3.396 62.72 4.202 62.72 5.17375C63.1506 5.1965 63.5715 5.2095 64.1704 5.1965C64.9377 5.1965 65.1158 4.8845 65.2485 4.3905L65.3197 4.4035C65.2841 4.7155 65.2485 5.0535 65.2485 5.3525C65.2485 5.6775 65.2615 6.02525 65.3197 6.3405L65.2485 6.3535C65.0802 5.801 64.9474 5.57025 64.1704 5.5605C63.6201 5.5605 63.1765 5.5475 62.72 5.5735V5.645C62.72 6.919 62.72 7.91675 62.7686 8.66425C62.8172 9.4475 63.319 9.506 64.423 9.506C65.3813 9.506 65.7406 9.38575 66.0029 8.35225L66.0741 8.36525L66.0773 8.362Z" fill="white"/>
<path d="M76.5474 1.303V1.3745C75.9485 1.459 75.6377 1.65075 75.5891 2.3235C75.5179 3.383 75.4823 4.1045 75.4823 5.918C75.4823 7.08475 75.4823 8.75525 75.5308 10.0553H75.5082C73.5916 7.7705 71.4937 5.47275 69.2436 3.15225C69.2307 3.86075 69.2307 4.5725 69.2307 5.31675C69.2307 7.15625 69.2533 7.86475 69.3245 8.93725C69.3731 9.636 69.671 9.82775 70.2699 9.91225V9.98375C69.7066 9.935 69.3699 9.91225 68.9522 9.91225C68.5346 9.91225 68.2206 9.935 67.6572 9.98375V9.91225C68.2562 9.82775 68.5573 9.636 68.6026 8.93725C68.6609 7.868 68.6997 7.15625 68.6997 5.32975C68.6997 4.163 68.6997 2.395 68.6641 1.22825H68.6868C70.8073 3.62025 72.9149 5.918 74.9772 8.13125C74.9902 7.374 74.9902 6.60375 74.9902 5.89525C74.9902 4.0915 74.9546 3.383 74.8833 2.3235C74.8348 1.65075 74.524 1.459 73.925 1.3745V1.303C74.4884 1.35175 74.8477 1.3745 75.2556 1.3745C75.6636 1.3745 75.9873 1.35175 76.5506 1.303H76.5474Z" fill="white"/>
<path d="M85.3567 0.991002C85.1884 1.57925 85.0815 2.15775 85.02 2.603H84.9488C85.0071 2.07325 84.9358 1.85875 84.3725 1.81C83.8804 1.76125 82.8379 1.7125 82.0253 1.70275C81.9768 2.80775 81.967 4.19225 81.967 5.697C81.967 6.93525 81.967 7.89725 82.0253 9.0055C82.0609 9.69125 82.4203 9.896 83.0322 9.9675V10.039C82.4203 9.99025 82.0027 9.9675 81.5591 9.9675C81.1156 9.9675 80.7077 9.99025 80.0861 10.039V9.9675C80.6979 9.896 81.0573 9.69125 81.0929 9.0055C81.1512 7.92325 81.1512 6.9125 81.1512 5.697C81.1512 4.21825 81.1382 2.824 81.0929 1.70275C80.29 1.7255 79.2961 1.77425 78.804 1.81C78.2277 1.8685 78.0982 2.109 77.904 2.616H77.8328C77.9882 2.17075 78.1079 1.54675 78.1921 0.968254H78.2633C78.2504 1.22175 78.3119 1.2575 78.4544 1.2705C78.8364 1.30625 80.6947 1.329 81.5332 1.329C82.3717 1.329 84.4567 1.30625 84.8873 1.2575C85.1139 1.23475 85.224 1.19575 85.2822 0.99425H85.3535L85.3567 0.991002Z" fill="white"/>
<path d="M93.7191 9.9155V9.987C93.3112 9.95125 92.7252 9.9155 92.2946 9.9155C91.864 9.9155 91.2878 9.93825 90.7018 9.987V9.9155C91.4561 9.857 91.8414 9.63925 91.5759 8.9405C91.4075 8.50825 91.1194 7.8095 90.773 7.0165C90.3068 6.99375 89.7532 6.98075 89.1543 6.98075C88.5553 6.98075 87.9078 6.99375 87.4157 7.0165C87.1632 7.6665 86.9236 8.3165 86.697 8.9405C86.4445 9.63925 86.684 9.85375 87.4869 9.9155V9.987C87.0304 9.95125 86.5286 9.9155 86.1693 9.9155C85.7031 9.9155 85.2822 9.95125 84.9487 9.987V9.9155C85.321 9.86675 85.716 9.63925 86.0139 8.93075C86.7941 7.10425 88.5909 2.73625 89.1413 1.23475H89.164C90.4331 4.13375 91.1032 5.66125 92.5892 8.95675C92.8903 9.6295 93.1655 9.83425 93.7159 9.91875L93.7191 9.9155ZM90.569 6.51275C90.0187 5.2615 89.3938 3.86725 88.9891 2.97675C88.5456 4.10775 88.0664 5.31025 87.61 6.51275C88.0405 6.5485 88.6751 6.5745 89.1445 6.5745C89.6593 6.5745 90.1158 6.55175 90.569 6.51275Z" fill="white"/>
<path d="M99.7117 8.39775C99.6502 8.9275 99.6502 9.4215 99.7117 10.0098C98.611 9.93825 98.0573 9.91225 97.2544 9.91225C96.4515 9.91225 95.1112 9.92525 94.4767 9.98375V9.91225C95.0627 9.84075 95.4479 9.636 95.4835 8.93725C95.5451 7.855 95.5451 6.91575 95.5451 5.64175C95.5451 4.36775 95.5451 3.4155 95.4835 2.33325C95.4479 1.6605 95.0886 1.44275 94.4767 1.37125V1.29975C95.0886 1.3485 95.5062 1.37125 95.9497 1.37125C96.3933 1.37125 96.8012 1.3485 97.4228 1.29975V1.37125C96.8109 1.44275 96.4516 1.6605 96.4159 2.33325C96.3544 3.43825 96.3544 4.41325 96.3544 5.64175C96.3544 6.87025 96.3544 7.9135 96.403 8.661C96.4516 9.44425 96.9534 9.50275 98.0574 9.50275C99.0157 9.50275 99.375 9.40525 99.6373 8.38475L99.7085 8.39775H99.7117Z" fill="white"/>
</svg>